<svg xmlns="http://www.w3.org/2000/svg" viewBox="0 0 400 400" width="400" height="400">
  <defs>
    <linearGradient id="bg" x1="0%" y1="0%" x2="100%" y2="100%">
      <stop offset="0%" style="stop-color:#2B1F14"/>
      <stop offset="100%" style="stop-color:#1A1209"/>
    </linearGradient>
    <linearGradient id="wrap" x1="0%" y1="0%" x2="100%" y2="100%">
      <stop offset="0%" style="stop-color:#5A7C3A"/>
      <stop offset="100%" style="stop-color:#3A5C2A"/>
    </linearGradient>
  </defs>
  <rect width="400" height="400" fill="url(#bg)"/>
  <!-- Тарелка -->
  <ellipse cx="200" cy="285" rx="150" ry="48" fill="#3A2815" opacity="0.5"/>
  <ellipse cx="200" cy="280" rx="140" ry="42" fill="#4A3520" opacity="0.3"/>
  <!-- Голубцы/долма -->
  <ellipse cx="170" cy="250" rx="35" ry="22" fill="url(#wrap)" opacity="0.7"/>
  <ellipse cx="230" cy="245" rx="35" ry="22" fill="url(#wrap)" opacity="0.65"/>
  <ellipse cx="200" cy="230" rx="38" ry="24" fill="url(#wrap)" opacity="0.75"/>
  <ellipse cx="155" cy="265" rx="30" ry="20" fill="#4A6C2A" opacity="0.55"/>
  <ellipse cx="245" cy="265" rx="30" ry="20" fill="#4A6C2A" opacity="0.55"/>
  <!-- Текстура листьев -->
  <path d="M155 250 Q170 245 185 250" stroke="#3A5C2A" stroke-width="1" fill="none" opacity="0.4"/>
  <path d="M215 245 Q230 240 245 245" stroke="#3A5C2A" stroke-width="1" fill="none" opacity="0.4"/>
  <path d="M185 230 Q200 225 215 230" stroke="#3A5C2A" stroke-width="1" fill="none" opacity="0.4"/>
  <!-- Соус -->
  <ellipse cx="200" cy="280" rx="80" ry="15" fill="#C2502D" opacity="0.2"/>
</svg>