<?xml version="1.0" encoding="UTF-8"?>
<!DOCTYPE svg PUBLIC "-//W3C//DTD SVG 1.1//EN" "http://www.w3.org/Graphics/SVG/1.1/DTD/svg11.dtd">
<svg xmlns="http://www.w3.org/2000/svg" version="1.1" width="500px" height="500px" style="shape-rendering:geometricPrecision; text-rendering:geometricPrecision; image-rendering:optimizeQuality; fill-rule:evenodd; clip-rule:evenodd" xmlns:xlink="http://www.w3.org/1999/xlink">
<g><path style="opacity:0.008" fill="#ffffff" d="M -0.5,-0.5 C 0.166667,-0.5 0.833333,-0.5 1.5,-0.5C 1.16667,0.5 0.5,1.16667 -0.5,1.5C -0.5,0.833333 -0.5,0.166667 -0.5,-0.5 Z"/></g>
<g><path style="opacity:0.004" fill="#ffffff" d="M 13.5,-0.5 C 14.8333,-0.5 16.1667,-0.5 17.5,-0.5C 16.1667,0.833333 14.8333,0.833333 13.5,-0.5 Z"/></g>
<g><path style="opacity:0.024" fill="#ffffff" d="M 20.5,-0.5 C 180.167,-0.5 339.833,-0.5 499.5,-0.5C 499.5,0.5 499.5,1.5 499.5,2.5C 354.47,2.26536 209.137,1.76536 63.5,1C 48.9941,0.831201 34.6608,0.331201 20.5,-0.5 Z"/></g>
<g><path style="opacity:0.004" fill="#ffffff" d="M 223.5,114.5 C 224.251,113.427 225.251,113.26 226.5,114C 225.552,114.483 224.552,114.649 223.5,114.5 Z"/></g>
<g><path style="opacity:0.004" fill="#ffffff" d="M 237.5,119.5 C 238.833,120.167 238.833,120.167 237.5,119.5 Z"/></g>
<g><path style="opacity:0.004" fill="#ffffff" d="M 239.5,120.5 C 240.833,121.167 240.833,121.167 239.5,120.5 Z"/></g>
<g><path style="opacity:0.05" fill="#ffffff" d="M 223.5,114.5 C 224.884,115.801 226.384,115.801 228,114.5C 230,116.167 232,117.833 234,119.5C 235.292,118.209 236.458,118.209 237.5,119.5C 235.621,119.393 235.288,119.893 236.5,121C 241.396,123.728 246.229,125.562 251,126.5C 252.333,127.167 253.333,128.167 254,129.5C 254.414,129.043 254.914,128.709 255.5,128.5C 257.127,129.877 258.794,131.211 260.5,132.5C 262.519,133.933 264.686,135.267 267,136.5C 267.333,158.5 267.667,180.5 268,202.5C 268.333,201.833 268.667,201.167 269,200.5C 271.854,209.438 276.021,210.272 281.5,203C 288.167,202.333 294.833,202.333 301.5,203C 297.167,203.333 292.833,203.667 288.5,204C 294.748,204.188 300.915,204.688 307,205.5C 307.333,205.167 307.667,204.833 308,204.5C 312.829,187.512 319.829,171.512 329,156.5C 330.946,153.58 333.113,150.913 335.5,148.5C 337.903,149.131 340.236,150.131 342.5,151.5C 344.875,156.477 347.708,161.144 351,165.5C 356.482,177.634 361.315,189.634 365.5,201.5C 365.392,202.442 365.059,203.275 364.5,204C 366.99,213.404 367.157,222.904 365,232.5C 360.23,237.805 354.396,241.472 347.5,243.5C 346.825,257.063 346.158,270.563 345.5,284C 347.336,287.848 347.336,291.515 345.5,295C 342.781,295.528 340.281,295.028 338,293.5C 336,294.167 334,294.833 332,295.5C 330.635,295.156 329.468,294.489 328.5,293.5C 325.457,296.441 322.957,296.108 321,292.5C 320.833,278.488 320.333,264.488 319.5,250.5C 313.249,246.554 307.249,242.387 301.5,238C 292.858,234.02 285.191,228.687 278.5,222C 272.576,217.456 266.409,213.289 260,209.5C 239.007,222.836 218.674,237.169 199,252.5C 198.833,266.179 198.333,279.846 197.5,293.5C 194.471,296.165 192.138,295.498 190.5,291.5C 191.754,278.532 191.754,265.532 190.5,252.5C 190.231,249.447 191.064,246.78 193,244.5C 196.555,242.063 199.888,239.396 203,236.5C 203.874,223.791 203.54,211.124 202,198.5C 191.784,195.076 181.45,192.076 171,189.5C 170.167,189.833 169.333,190.167 168.5,190.5C 169.077,192.106 169.41,193.772 169.5,195.5C 167.961,228.142 167.128,260.809 167,293.5C 165.488,295.957 164.154,295.957 163,293.5C 161.915,294.293 160.748,294.96 159.5,295.5C 158.452,294.617 157.285,293.95 156,293.5C 151.614,296.151 147.281,296.151 143,293.5C 140.921,294.403 138.754,295.069 136.5,295.5C 134.956,295.21 133.623,294.544 132.5,293.5C 131.56,264.494 131.06,235.494 131,206.5C 131.465,205.069 132.299,203.903 133.5,203C 143.444,196.059 153.111,188.725 162.5,181C 166.061,179.253 169.727,179.087 173.5,180.5C 175.374,180.61 176.874,179.944 178,178.5C 178.822,164.925 178.656,151.425 177.5,138C 178.063,135.094 179.396,132.594 181.5,130.5C 190.007,126.496 198.674,123.663 207.5,122C 206.833,121.667 206.167,121.333 205.5,121C 207.969,118.906 210.636,118.406 213.5,119.5C 214.696,119.154 214.696,118.654 213.5,118C 216.756,116.526 220.089,115.36 223.5,114.5 Z M 217.5,125.5 C 218.496,125.414 219.329,125.748 220,126.5C 220.052,140.164 219.718,153.831 219,167.5C 219.026,156.72 218.026,146.053 216,135.5C 214.915,134.707 213.748,134.04 212.5,133.5C 210.418,136.152 209.085,139.152 208.5,142.5C 210.117,146.737 211.45,151.071 212.5,155.5C 208.503,163.845 208.503,172.178 212.5,180.5C 214.006,181.747 215.506,181.747 217,180.5C 218.044,178.285 218.71,175.952 219,173.5C 219.333,174.5 219.667,175.5 220,176.5C 220.485,188.451 221.318,200.451 222.5,212.5C 222.801,220.568 219.468,226.568 212.5,230.5C 209.939,218.609 209.939,206.775 212.5,195C 210.543,193.009 208.543,191.009 206.5,189C 200.412,187.117 194.412,185.951 188.5,185.5C 187.684,183.713 186.684,182.046 185.5,180.5C 185.808,179.692 186.308,179.025 187,178.5C 187.167,165.154 187.667,151.821 188.5,138.5C 195.637,134.297 203.303,131.463 211.5,130C 213.684,128.637 215.684,127.137 217.5,125.5 Z M 336.5,162.5 C 337.675,162.281 338.675,162.614 339.5,163.5C 345.222,173.611 350.389,183.944 355,194.5C 357.577,201.485 359.411,208.651 360.5,216C 360.422,226.074 355.422,231.741 345.5,233C 347.167,233.333 348.833,233.667 350.5,234C 346.663,234.761 342.996,234.261 339.5,232.5C 338.833,232.667 338.167,232.833 337.5,233C 338.5,233.333 339.5,233.667 340.5,234C 335.557,235.489 330.557,235.489 325.5,234C 326.167,233.667 326.833,233.333 327.5,233C 319.982,230.487 315.815,225.32 315,217.5C 314.187,222.774 313.687,222.774 313.5,217.5C 318.066,198.629 325.733,180.295 336.5,162.5 Z M 303.5,216.5 C 304.601,217.848 305.601,219.348 306.5,221C 306.167,221.333 305.833,221.667 305.5,222C 306.2,224.472 307.2,226.805 308.5,229C 308.167,229.5 307.833,230 307.5,230.5C 306.28,229.289 305.113,229.289 304,230.5C 303.501,225.845 303.334,221.179 303.5,216.5 Z M 290.5,217.5 C 292.5,217.5 294.5,217.5 296.5,217.5C 296.853,219.635 296.02,220.968 294,221.5C 291.926,220.928 290.76,219.595 290.5,217.5 Z M 263.5,228.5 C 270.276,231.584 269.943,232.584 262.5,231.5C 263.127,230.583 263.461,229.583 263.5,228.5 Z M 252.5,229.5 C 253.833,229.5 255.167,229.5 256.5,229.5C 256.5,230.5 256.5,231.5 256.5,232.5C 254.396,232.799 252.396,232.466 250.5,231.5C 251.243,230.818 251.909,230.151 252.5,229.5 Z M 250.5,234.5 C 252.185,233.156 253.852,233.323 255.5,235C 253.735,235.64 252.068,235.473 250.5,234.5 Z M 265.5,233.5 C 269.315,233.712 269.315,234.378 265.5,235.5C 264.833,235.333 264.167,235.167 263.5,235C 264.416,234.722 265.082,234.222 265.5,233.5 Z M 249.5,242.5 C 256.697,241.893 258.364,244.726 254.5,251C 247.544,251.966 245.878,249.133 249.5,242.5 Z M 262.5,242.5 C 265.167,242.5 267.833,242.5 270.5,242.5C 270.867,246.05 269.867,249.05 267.5,251.5C 265.899,250.835 264.399,250.501 263,250.5C 262.503,247.854 262.336,245.187 262.5,242.5 Z M 336.5,243.5 C 337.725,244.152 338.392,245.319 338.5,247C 338.167,248.167 337.833,249.333 337.5,250.5C 336.526,248.257 336.192,245.924 336.5,243.5 Z"/></g>
<g><path style="opacity:0.92" fill="#ffffff" d="M 325.5,248.5 C 326.15,263.206 325.483,277.539 323.5,291.5C 323.667,277.496 323.5,263.496 323,249.5C 302.247,234.248 281.08,219.582 259.5,205.5C 238.259,219.943 217.259,234.609 196.5,249.5C 196.161,263.696 195.161,277.696 193.5,291.5C 193.167,276.818 193.501,262.152 194.5,247.5C 197.833,245.167 201.167,242.833 204.5,240.5C 205.833,225.5 205.833,210.5 204.5,195.5C 192.412,191.517 180.245,187.851 168,184.5C 157.833,192 147.667,199.5 137.5,207C 135.485,208.555 135.152,210.389 136.5,212.5C 145.833,205.5 155.167,198.5 164.5,191.5C 165.107,191.624 165.44,191.957 165.5,192.5C 166.16,225.85 165.493,258.85 163.5,291.5C 163.667,259.498 163.5,227.498 163,195.5C 154.29,202.383 145.457,209.05 136.5,215.5C 135.833,240.67 135.167,266.003 134.5,291.5C 133.5,263.508 133.167,235.508 133.5,207.5C 143.982,199.197 154.648,191.03 165.5,183C 170.904,183.182 176.238,184.015 181.5,185.5C 181.167,168.154 181.5,150.821 182.5,133.5C 193.794,128.902 205.127,124.402 216.5,120C 220.017,118.266 223.684,117.599 227.5,118C 239.833,124.167 252.167,130.333 264.5,136.5C 265.333,159.826 265.833,183.16 266,206.5C 271.944,210.111 277.611,214.111 283,218.5C 283.22,215.601 282.72,212.767 281.5,210C 281.559,208.564 281.892,207.231 282.5,206C 289.167,205.333 295.833,205.333 302.5,206C 305.24,208.979 305.073,211.812 302,214.5C 301.333,220.167 301.333,225.833 302,231.5C 310.166,236.821 317.999,242.488 325.5,248.5 Z M 217.5,125.5 C 215.684,127.137 213.684,128.637 211.5,130C 203.303,131.463 195.637,134.297 188.5,138.5C 187.667,151.821 187.167,165.154 187,178.5C 186.308,179.025 185.808,179.692 185.5,180.5C 186.684,182.046 187.684,183.713 188.5,185.5C 194.412,185.951 200.412,187.117 206.5,189C 208.543,191.009 210.543,193.009 212.5,195C 209.939,206.775 209.939,218.609 212.5,230.5C 219.468,226.568 222.801,220.568 222.5,212.5C 221.318,200.451 220.485,188.451 220,176.5C 219.667,175.5 219.333,174.5 219,173.5C 218.71,175.952 218.044,178.285 217,180.5C 215.506,181.747 214.006,181.747 212.5,180.5C 208.503,172.178 208.503,163.845 212.5,155.5C 211.45,151.071 210.117,146.737 208.5,142.5C 209.085,139.152 210.418,136.152 212.5,133.5C 213.748,134.04 214.915,134.707 216,135.5C 218.026,146.053 219.026,156.72 219,167.5C 219.718,153.831 220.052,140.164 220,126.5C 219.329,125.748 218.496,125.414 217.5,125.5 Z M 290.5,217.5 C 290.76,219.595 291.926,220.928 294,221.5C 296.02,220.968 296.853,219.635 296.5,217.5C 294.5,217.5 292.5,217.5 290.5,217.5 Z M 263.5,228.5 C 263.461,229.583 263.127,230.583 262.5,231.5C 269.943,232.584 270.276,231.584 263.5,228.5 Z M 252.5,229.5 C 251.909,230.151 251.243,230.818 250.5,231.5C 252.396,232.466 254.396,232.799 256.5,232.5C 256.5,231.5 256.5,230.5 256.5,229.5C 255.167,229.5 253.833,229.5 252.5,229.5 Z M 250.5,234.5 C 252.068,235.473 253.735,235.64 255.5,235C 253.852,233.323 252.185,233.156 250.5,234.5 Z M 265.5,233.5 C 265.082,234.222 264.416,234.722 263.5,235C 264.167,235.167 264.833,235.333 265.5,235.5C 269.315,234.378 269.315,233.712 265.5,233.5 Z M 249.5,242.5 C 245.878,249.133 247.544,251.966 254.5,251C 258.364,244.726 256.697,241.893 249.5,242.5 Z M 262.5,242.5 C 262.336,245.187 262.503,247.854 263,250.5C 264.399,250.501 265.899,250.835 267.5,251.5C 269.867,249.05 270.867,246.05 270.5,242.5C 267.833,242.5 265.167,242.5 262.5,242.5 Z"/></g>
<g><path style="opacity:0.04" fill="#ffffff" d="M 223.5,119.5 C 236.559,125.528 249.559,131.862 262.5,138.5C 263.666,160.492 263.833,182.492 263,204.5C 262.333,203.833 261.667,203.167 261,202.5C 260.833,182.158 260.333,161.825 259.5,141.5C 256.6,139.049 253.266,137.715 249.5,137.5C 249.99,161.983 249.49,186.316 248,210.5C 247.833,185.16 247.333,159.827 246.5,134.5C 243.36,132.594 240.027,131.26 236.5,130.5C 236.991,160.314 236.491,189.981 235,219.5C 234.667,189.5 234.333,159.5 234,129.5C 230.938,126.885 227.438,125.219 223.5,124.5C 223.667,158.835 223.5,193.168 223,227.5C 218.333,230.833 213.667,234.167 209,237.5C 208.5,222.837 208.333,208.17 208.5,193.5C 200.237,191.467 192.07,189.134 184,186.5C 183.333,169.5 183.333,152.5 184,135.5C 197.29,130.242 210.456,124.909 223.5,119.5 Z M 217.5,125.5 C 215.684,127.137 213.684,128.637 211.5,130C 203.303,131.463 195.637,134.297 188.5,138.5C 187.667,151.821 187.167,165.154 187,178.5C 186.308,179.025 185.808,179.692 185.5,180.5C 186.684,182.046 187.684,183.713 188.5,185.5C 194.412,185.951 200.412,187.117 206.5,189C 208.543,191.009 210.543,193.009 212.5,195C 209.939,206.775 209.939,218.609 212.5,230.5C 219.468,226.568 222.801,220.568 222.5,212.5C 221.318,200.451 220.485,188.451 220,176.5C 219.667,175.5 219.333,174.5 219,173.5C 218.71,175.952 218.044,178.285 217,180.5C 215.506,181.747 214.006,181.747 212.5,180.5C 208.503,172.178 208.503,163.845 212.5,155.5C 211.45,151.071 210.117,146.737 208.5,142.5C 209.085,139.152 210.418,136.152 212.5,133.5C 213.748,134.04 214.915,134.707 216,135.5C 218.026,146.053 219.026,156.72 219,167.5C 219.718,153.831 220.052,140.164 220,126.5C 219.329,125.748 218.496,125.414 217.5,125.5 Z"/></g>
<g><path style="opacity:0.094" fill="#ffffff" d="M 226.5,127.5 C 227.885,128.614 229.385,129.614 231,130.5C 231.667,160.833 231.667,191.167 231,221.5C 229.981,222.687 228.814,223.687 227.5,224.5C 226.5,192.174 226.167,159.84 226.5,127.5 Z"/></g>
<g><path style="opacity:0.004" fill="#ffffff" d="M 260.5,131.5 C 261.833,132.167 261.833,132.167 260.5,131.5 Z"/></g>
<g><path style="opacity:0.1" fill="#ffffff" d="M 243.5,135.5 C 244.49,161.092 244.824,186.759 244.5,212.5C 243.185,213.476 241.852,214.476 240.5,215.5C 239.333,188.173 239.167,160.839 240,133.5C 240.816,134.823 241.983,135.489 243.5,135.5 Z"/></g>
<g><path style="opacity:0.738" fill="#ffffff" d="M 243.5,135.5 C 244.833,147.982 245.499,160.815 245.5,174C 245.5,187.004 245.167,199.838 244.5,212.5C 244.824,186.759 244.49,161.092 243.5,135.5 Z"/></g>
<g><path style="opacity:0.107" fill="#ffffff" d="M 252.5,140.5 C 253.807,141.153 255.14,141.82 256.5,142.5C 257.666,162.825 257.833,183.158 257,203.5C 255.846,204.743 254.512,205.743 253,206.5C 252.5,184.503 252.333,162.503 252.5,140.5 Z"/></g>
<g><path style="opacity:0.004" fill="#ffffff" d="M 335.5,148.5 C 336.251,147.427 337.251,147.26 338.5,148C 337.552,148.483 336.552,148.649 335.5,148.5 Z"/></g>
<g><path style="opacity:0.927" fill="#ffffff" d="M 344.5,250.5 C 343.669,263.994 343.169,277.661 343,291.5C 342.802,289.618 342.302,287.952 341.5,286.5C 341.5,273.833 341.5,261.167 341.5,248.5C 342.479,245.375 342.813,242.042 342.5,238.5C 339.287,238.19 336.287,238.523 333.5,239.5C 333.5,256.833 333.5,274.167 333.5,291.5C 331.838,274.357 330.838,257.024 330.5,239.5C 312.784,236.585 305.951,226.251 310,208.5C 316.236,187.697 325.403,168.364 337.5,150.5C 350.155,168.816 359.322,188.816 365,210.5C 366.035,217.355 365.368,224.022 363,230.5C 358.399,236.697 352.232,239.364 344.5,238.5C 344.5,242.5 344.5,246.5 344.5,250.5 Z M 336.5,162.5 C 325.733,180.295 318.066,198.629 313.5,217.5C 313.687,222.774 314.187,222.774 315,217.5C 315.815,225.32 319.982,230.487 327.5,233C 326.833,233.333 326.167,233.667 325.5,234C 330.557,235.489 335.557,235.489 340.5,234C 339.5,233.667 338.5,233.333 337.5,233C 338.167,232.833 338.833,232.667 339.5,232.5C 342.996,234.261 346.663,234.761 350.5,234C 348.833,233.667 347.167,233.333 345.5,233C 355.422,231.741 360.422,226.074 360.5,216C 359.411,208.651 357.577,201.485 355,194.5C 350.389,183.944 345.222,173.611 339.5,163.5C 338.675,162.614 337.675,162.281 336.5,162.5 Z M 336.5,243.5 C 336.192,245.924 336.526,248.257 337.5,250.5C 337.833,249.333 338.167,248.167 338.5,247C 338.392,245.319 337.725,244.152 336.5,243.5 Z"/></g>
<g><path style="opacity:0.034" fill="#ffffff" d="M 336.5,155.5 C 337.496,155.414 338.329,155.748 339,156.5C 349.383,172.982 357.05,190.649 362,209.5C 362.861,215.585 362.527,221.585 361,227.5C 358.685,231.817 355.185,234.65 350.5,236C 315.76,241.258 304.594,227.424 317,194.5C 322.986,181.195 329.486,168.195 336.5,155.5 Z M 336.5,162.5 C 325.733,180.295 318.066,198.629 313.5,217.5C 313.687,222.774 314.187,222.774 315,217.5C 315.815,225.32 319.982,230.487 327.5,233C 326.833,233.333 326.167,233.667 325.5,234C 330.557,235.489 335.557,235.489 340.5,234C 339.5,233.667 338.5,233.333 337.5,233C 338.167,232.833 338.833,232.667 339.5,232.5C 342.996,234.261 346.663,234.761 350.5,234C 348.833,233.667 347.167,233.333 345.5,233C 355.422,231.741 360.422,226.074 360.5,216C 359.411,208.651 357.577,201.485 355,194.5C 350.389,183.944 345.222,173.611 339.5,163.5C 338.675,162.614 337.675,162.281 336.5,162.5 Z"/></g>
<g><path style="opacity:0.028" fill="#ffffff" d="M -0.5,193.5 C 0.330476,204.326 0.830476,215.326 1,226.5C 1.16667,261.833 1.33333,297.167 1.5,332.5C 1.69556,382.676 1.02889,432.676 -0.5,482.5C -0.5,386.167 -0.5,289.833 -0.5,193.5 Z"/></g>
<g><path style="opacity:0.917" fill="#ffffff" d="M 160.5,291.5 C 158.838,263.512 157.838,235.179 157.5,206.5C 156.893,206.624 156.56,206.957 156.5,207.5C 155.312,208.364 154.145,209.364 153,210.5C 152.5,237.498 152.333,264.498 152.5,291.5C 150.509,264.52 149.842,237.187 150.5,209.5C 153.069,206.272 156.402,204.272 160.5,203.5C 160.5,232.833 160.5,262.167 160.5,291.5 Z"/></g>
<g><path style="opacity:0.077" fill="#ffffff" d="M 283.5,208.5 C 289.5,208.5 295.5,208.5 301.5,208.5C 301.5,209.5 301.5,210.5 301.5,211.5C 295.5,211.5 289.5,211.5 283.5,211.5C 283.5,210.5 283.5,209.5 283.5,208.5 Z"/></g>
<g><path style="opacity:0.921" fill="#ffffff" d="M 148.5,291.5 C 146.838,266.513 145.838,241.18 145.5,215.5C 144.893,215.624 144.56,215.957 144.5,216.5C 143.312,217.364 142.145,218.364 141,219.5C 140.5,243.498 140.333,267.498 140.5,291.5C 138.51,267.523 137.843,243.19 138.5,218.5C 141.144,216.031 143.977,213.698 147,211.5C 147.333,211.833 147.667,212.167 148,212.5C 148.5,238.831 148.667,265.165 148.5,291.5 Z"/></g>
<g><path style="opacity:0.028" fill="#ffffff" d="M 286.5,214.5 C 290.833,214.5 295.167,214.5 299.5,214.5C 299.666,219.511 299.499,224.511 299,229.5C 294.821,226.743 290.821,223.743 287,220.5C 286.505,218.527 286.338,216.527 286.5,214.5 Z M 290.5,217.5 C 290.76,219.595 291.926,220.928 294,221.5C 296.02,220.968 296.853,219.635 296.5,217.5C 294.5,217.5 292.5,217.5 290.5,217.5 Z"/></g>
<g><path style="opacity:0.681" fill="#ffffff" d="M 144.5,216.5 C 144.56,215.957 144.893,215.624 145.5,215.5C 145.838,241.18 146.838,266.513 148.5,291.5C 147.791,292.404 146.791,292.737 145.5,292.5C 145.831,266.995 145.498,241.661 144.5,216.5 Z"/></g>
<g><path style="opacity:0.004" fill="#ffffff" d="M 254.5,219.5 C 257.976,218.357 261.642,218.19 265.5,219C 266.712,220.107 266.379,220.607 264.5,220.5C 261.375,219.521 258.042,219.187 254.5,219.5 Z"/></g>
<g><path style="opacity:0.625" fill="#ffffff" d="M 138.5,218.5 C 137.843,243.19 138.51,267.523 140.5,291.5C 139.791,292.404 138.791,292.737 137.5,292.5C 137.169,267.661 137.502,242.994 138.5,218.5 Z"/></g>
<g><path style="opacity:0.029" fill="#ffffff" d="M 254.5,219.5 C 257.625,220.479 260.958,220.813 264.5,220.5C 266.362,221.392 268.362,221.559 270.5,221C 273.956,223.461 276.456,226.627 278,230.5C 277.238,239.358 277.404,248.191 278.5,257C 277.646,258.022 276.646,258.855 275.5,259.5C 271.05,258.861 266.55,258.528 262,258.5C 256.172,258.289 250.505,258.955 245,260.5C 243.915,259.707 242.748,259.04 241.5,258.5C 240.335,249.518 240.168,240.518 241,231.5C 241.36,229.579 242.194,227.912 243.5,226.5C 245.731,224.89 247.731,223.057 249.5,221C 251.025,219.991 252.692,219.491 254.5,219.5 Z M 263.5,228.5 C 263.461,229.583 263.127,230.583 262.5,231.5C 269.943,232.584 270.276,231.584 263.5,228.5 Z M 252.5,229.5 C 251.909,230.151 251.243,230.818 250.5,231.5C 252.396,232.466 254.396,232.799 256.5,232.5C 256.5,231.5 256.5,230.5 256.5,229.5C 255.167,229.5 253.833,229.5 252.5,229.5 Z M 250.5,234.5 C 252.068,235.473 253.735,235.64 255.5,235C 253.852,233.323 252.185,233.156 250.5,234.5 Z M 265.5,233.5 C 265.082,234.222 264.416,234.722 263.5,235C 264.167,235.167 264.833,235.333 265.5,235.5C 269.315,234.378 269.315,233.712 265.5,233.5 Z M 249.5,242.5 C 245.878,249.133 247.544,251.966 254.5,251C 258.364,244.726 256.697,241.893 249.5,242.5 Z M 262.5,242.5 C 262.336,245.187 262.503,247.854 263,250.5C 264.399,250.501 265.899,250.835 267.5,251.5C 269.867,249.05 270.867,246.05 270.5,242.5C 267.833,242.5 265.167,242.5 262.5,242.5 Z"/></g>
<g><path style="opacity:0.647" fill="#ffffff" d="M 156.5,207.5 C 156.56,206.957 156.893,206.624 157.5,206.5C 157.838,235.179 158.838,263.512 160.5,291.5C 159.791,292.404 158.791,292.737 157.5,292.5C 157.831,263.995 157.498,235.662 156.5,207.5 Z"/></g>
<g><path style="opacity:0.905" fill="#ffffff" d="M 255.5,221.5 C 265.903,220.443 272.737,224.776 276,234.5C 276.5,241.826 276.666,249.159 276.5,256.5C 265.5,256.5 254.5,256.5 243.5,256.5C 243.334,248.493 243.5,240.493 244,232.5C 246.412,227.252 250.246,223.586 255.5,221.5 Z M 263.5,228.5 C 263.461,229.583 263.127,230.583 262.5,231.5C 269.943,232.584 270.276,231.584 263.5,228.5 Z M 252.5,229.5 C 251.909,230.151 251.243,230.818 250.5,231.5C 252.396,232.466 254.396,232.799 256.5,232.5C 256.5,231.5 256.5,230.5 256.5,229.5C 255.167,229.5 253.833,229.5 252.5,229.5 Z M 250.5,234.5 C 252.068,235.473 253.735,235.64 255.5,235C 253.852,233.323 252.185,233.156 250.5,234.5 Z M 265.5,233.5 C 265.082,234.222 264.416,234.722 263.5,235C 264.167,235.167 264.833,235.333 265.5,235.5C 269.315,234.378 269.315,233.712 265.5,233.5 Z M 249.5,242.5 C 245.878,249.133 247.544,251.966 254.5,251C 258.364,244.726 256.697,241.893 249.5,242.5 Z M 262.5,242.5 C 262.336,245.187 262.503,247.854 263,250.5C 264.399,250.501 265.899,250.835 267.5,251.5C 269.867,249.05 270.867,246.05 270.5,242.5C 267.833,242.5 265.167,242.5 262.5,242.5 Z"/></g>
<g><path style="opacity:0.029" fill="#ffffff" d="M 254.5,224.5 C 255.833,224.5 257.167,224.5 258.5,224.5C 258.5,228.5 258.5,232.5 258.5,236.5C 254.5,236.5 250.5,236.5 246.5,236.5C 246.676,230.809 249.343,226.809 254.5,224.5 Z M 252.5,229.5 C 251.909,230.151 251.243,230.818 250.5,231.5C 252.396,232.466 254.396,232.799 256.5,232.5C 256.5,231.5 256.5,230.5 256.5,229.5C 255.167,229.5 253.833,229.5 252.5,229.5 Z M 250.5,234.5 C 252.068,235.473 253.735,235.64 255.5,235C 253.852,233.323 252.185,233.156 250.5,234.5 Z"/></g>
<g><path style="opacity:0.028" fill="#ffffff" d="M 261.5,224.5 C 268.5,225.5 272.5,229.5 273.5,236.5C 269.5,236.5 265.5,236.5 261.5,236.5C 261.5,232.5 261.5,228.5 261.5,224.5 Z M 263.5,228.5 C 263.461,229.583 263.127,230.583 262.5,231.5C 269.943,232.584 270.276,231.584 263.5,228.5 Z M 265.5,233.5 C 265.082,234.222 264.416,234.722 263.5,235C 264.167,235.167 264.833,235.333 265.5,235.5C 269.315,234.378 269.315,233.712 265.5,233.5 Z"/></g>
<g><path style="opacity:0.376" fill="#ffffff" d="M 165.5,192.5 C 166.498,225.662 166.832,258.996 166.5,292.5C 165.209,292.737 164.209,292.404 163.5,291.5C 165.493,258.85 166.16,225.85 165.5,192.5 Z"/></g>
<g><path style="opacity:0.306" fill="#ffffff" d="M 133.5,207.5 C 133.167,235.508 133.5,263.508 134.5,291.5C 135.167,266.003 135.833,240.67 136.5,215.5C 136.5,241.167 136.5,266.833 136.5,292.5C 135.167,292.5 133.833,292.5 132.5,292.5C 132.169,263.995 132.502,235.662 133.5,207.5 Z"/></g>
<g><path style="opacity:0.519" fill="#ffffff" d="M 150.5,209.5 C 149.842,237.187 150.509,264.52 152.5,291.5C 151.791,292.404 150.791,292.737 149.5,292.5C 149.169,264.662 149.502,236.995 150.5,209.5 Z"/></g>
<g><path style="opacity:0.034" fill="#ffffff" d="M 246.5,239.5 C 250.5,239.5 254.5,239.5 258.5,239.5C 258.5,244.5 258.5,249.5 258.5,254.5C 254.5,254.5 250.5,254.5 246.5,254.5C 246.5,249.5 246.5,244.5 246.5,239.5 Z M 249.5,242.5 C 245.878,249.133 247.544,251.966 254.5,251C 258.364,244.726 256.697,241.893 249.5,242.5 Z"/></g>
<g><path style="opacity:0.019" fill="#ffffff" d="M 261.5,239.5 C 265.5,239.5 269.5,239.5 273.5,239.5C 273.5,244.5 273.5,249.5 273.5,254.5C 269.5,254.5 265.5,254.5 261.5,254.5C 261.5,249.5 261.5,244.5 261.5,239.5 Z M 262.5,242.5 C 262.336,245.187 262.503,247.854 263,250.5C 264.399,250.501 265.899,250.835 267.5,251.5C 269.867,249.05 270.867,246.05 270.5,242.5C 267.833,242.5 265.167,242.5 262.5,242.5 Z"/></g>
<g><path style="opacity:0.69" fill="#ffffff" d="M 333.5,239.5 C 336.287,238.523 339.287,238.19 342.5,238.5C 342.813,242.042 342.479,245.375 341.5,248.5C 341.5,245.5 341.5,242.5 341.5,239.5C 338.833,239.5 336.167,239.5 333.5,239.5 Z"/></g>
<g><path style="opacity:0.733" fill="#ffffff" d="M 325.5,248.5 C 326.496,262.99 326.829,277.657 326.5,292.5C 325.209,292.737 324.209,292.404 323.5,291.5C 325.483,277.539 326.15,263.206 325.5,248.5 Z"/></g>
<g><path style="opacity:0.375" fill="#ffffff" d="M 330.5,239.5 C 330.838,257.024 331.838,274.357 333.5,291.5C 332.791,292.404 331.791,292.737 330.5,292.5C 330.5,274.833 330.5,257.167 330.5,239.5 Z"/></g>
<g><path style="opacity:0.587" fill="#ffffff" d="M 344.5,250.5 C 344.5,264.5 344.5,278.5 344.5,292.5C 343.5,292.5 342.5,292.5 341.5,292.5C 341.5,290.5 341.5,288.5 341.5,286.5C 342.302,287.952 342.802,289.618 343,291.5C 343.169,277.661 343.669,263.994 344.5,250.5 Z"/></g>
<g><path style="opacity:0.488" fill="#ffffff" d="M 196.5,249.5 C 196.5,263.833 196.5,278.167 196.5,292.5C 195.209,292.737 194.209,292.404 193.5,291.5C 195.161,277.696 196.161,263.696 196.5,249.5 Z"/></g>
<g><path style="opacity:0.025" fill="#ffffff" d="M 283.5,324.5 C 282.152,325.186 280.985,326.186 280,327.5C 279.586,327.043 279.086,326.709 278.5,326.5C 274.929,333.093 270.262,334.093 264.5,329.5C 261.29,332.222 257.624,333.056 253.5,332C 249.45,326.019 245.45,326.019 241.5,332C 237.984,332.789 234.651,332.289 231.5,330.5C 229.167,331.167 226.833,331.833 224.5,332.5C 221.516,331.314 218.683,329.981 216,328.5C 212.697,329.775 209.364,331.108 206,332.5C 202.928,331.894 200.762,330.228 199.5,327.5C 201.155,324.539 201.989,321.539 202,318.5C 204.735,315.655 206.735,312.321 208,308.5C 211.232,302.811 215.732,301.478 221.5,304.5C 223.751,312.011 227.251,318.677 232,324.5C 236.552,319.397 239.552,313.397 241,306.5C 247.695,300.109 253.028,301.442 257,310.5C 258.83,315.815 261.33,320.815 264.5,325.5C 263.854,320.106 263.854,314.606 264.5,309C 266.801,303.261 270.801,301.927 276.5,305C 278.24,307.035 280.074,308.869 282,310.5C 284.637,306.527 288.303,304.193 293,303.5C 294.605,304.101 295.938,305.101 297,306.5C 297.344,314.61 297.178,322.61 296.5,330.5C 290.628,333.928 287.128,332.262 286,325.5C 285.667,325.833 285.333,326.167 285,326.5C 284.722,325.584 284.222,324.918 283.5,324.5 Z"/></g>
<g><path style="opacity:0.968" fill="#ffffff" d="M 227.5,327.5 C 226.081,328.451 224.415,328.784 222.5,328.5C 222.461,327.417 222.127,326.417 221.5,325.5C 217.5,324.167 213.5,324.167 209.5,325.5C 208.873,326.417 208.539,327.417 208.5,328.5C 206.219,328.923 204.552,328.256 203.5,326.5C 206.049,320.401 208.882,314.401 212,308.5C 214.333,307.167 216.667,307.167 219,308.5C 222.394,314.619 225.228,320.952 227.5,327.5 Z"/></g>
<g><path style="opacity:0.97" fill="#ffffff" d="M 240.5,328.5 C 238.585,328.784 236.919,328.451 235.5,327.5C 238.36,320.946 241.36,314.446 244.5,308C 246.902,307.186 249.235,307.353 251.5,308.5C 254.227,314.954 257.227,321.288 260.5,327.5C 257.464,329.042 255.131,328.375 253.5,325.5C 249.555,324.509 245.555,324.176 241.5,324.5C 241.567,325.959 241.234,327.292 240.5,328.5 Z"/></g>
<g><path style="opacity:0.96" fill="#ffffff" d="M 289.5,307.5 C 291.167,307.5 292.833,307.5 294.5,307.5C 294.5,314.5 294.5,321.5 294.5,328.5C 292.833,328.5 291.167,328.5 289.5,328.5C 291.165,315.334 289.165,314 283.5,324.5C 279.662,323.671 276.995,321.338 275.5,317.5C 275.44,316.957 275.107,316.624 274.5,316.5C 273.509,320.445 273.176,324.445 273.5,328.5C 271.833,328.5 270.167,328.5 268.5,328.5C 268.5,321.5 268.5,314.5 268.5,307.5C 270.527,307.338 272.527,307.505 274.5,308C 276.467,311.433 278.801,314.6 281.5,317.5C 284.175,314.136 286.842,310.803 289.5,307.5 Z"/></g>
<g><path style="opacity:0.547" fill="#ffffff" d="M 289.5,307.5 C 291.265,306.539 293.265,306.205 295.5,306.5C 295.5,314.167 295.5,321.833 295.5,329.5C 293.265,329.795 291.265,329.461 289.5,328.5C 291.167,328.5 292.833,328.5 294.5,328.5C 294.5,321.5 294.5,314.5 294.5,307.5C 292.833,307.5 291.167,307.5 289.5,307.5 Z"/></g>
<g><path style="opacity:0.088" fill="#ffffff" d="M 214.5,313.5 C 216.513,314.475 217.846,316.142 218.5,318.5C 216.5,319.833 214.5,319.833 212.5,318.5C 213.456,316.925 214.123,315.258 214.5,313.5 Z"/></g>
<g><path style="opacity:0.081" fill="#ffffff" d="M 247.5,312.5 C 248.864,314.22 249.864,316.22 250.5,318.5C 248.579,319.641 246.579,319.808 244.5,319C 245.406,316.779 246.406,314.612 247.5,312.5 Z"/></g>
<g><path style="opacity:0.428" fill="#ffffff" d="M 275.5,317.5 C 274.833,321.167 274.167,324.833 273.5,328.5C 273.176,324.445 273.509,320.445 274.5,316.5C 275.107,316.624 275.44,316.957 275.5,317.5 Z"/></g>
<g><path style="opacity:0.509" fill="#ffffff" d="M 203.5,326.5 C 204.552,328.256 206.219,328.923 208.5,328.5C 206.735,329.461 204.735,329.795 202.5,329.5C 202.263,328.209 202.596,327.209 203.5,326.5 Z"/></g>
<g><path style="opacity:0.524" fill="#ffffff" d="M 227.5,327.5 C 228.043,327.56 228.376,327.893 228.5,328.5C 226.364,329.793 224.364,329.793 222.5,328.5C 224.415,328.784 226.081,328.451 227.5,327.5 Z"/></g>
<g><path style="opacity:0.562" fill="#ffffff" d="M 235.5,327.5 C 236.919,328.451 238.585,328.784 240.5,328.5C 238.636,329.793 236.636,329.793 234.5,328.5C 234.624,327.893 234.957,327.56 235.5,327.5 Z"/></g>
<g><path style="opacity:0.048" fill="#ffffff" d="M 267.5,363.5 C 265.167,362.167 262.833,362.167 260.5,363.5C 247.336,362.674 234.002,362.674 220.5,363.5C 216.444,362.235 214.444,359.402 214.5,355C 214.99,352.497 216.323,350.497 218.5,349C 215.7,347.768 212.7,347.101 209.5,347C 205.688,343.7 206.188,340.866 211,338.5C 237.094,339.329 263.261,339.829 289.5,340C 291.698,341.878 291.864,344.045 290,346.5C 287.092,346.908 284.592,348.075 282.5,350C 283.428,350.388 284.095,351.055 284.5,352C 283.804,354.118 283.637,356.284 284,358.5C 280.243,361.936 275.743,363.436 270.5,363C 271.833,363.333 273.167,363.667 274.5,364C 272.115,364.556 269.782,364.39 267.5,363.5 Z"/></g>
<g><path style="opacity:0.941" fill="#ffffff" d="M 210.5,341.5 C 236.833,341.5 263.167,341.5 289.5,341.5C 289.5,342.5 289.5,343.5 289.5,344.5C 263.167,344.5 236.833,344.5 210.5,344.5C 210.5,343.5 210.5,342.5 210.5,341.5 Z"/></g>
<g><path style="opacity:0.915" fill="#ffffff" d="M 226.5,356.5 C 228.256,357.552 228.923,359.219 228.5,361.5C 225.813,361.664 223.146,361.497 220.5,361C 216.5,357.667 216.5,354.333 220.5,351C 223.146,350.503 225.813,350.336 228.5,350.5C 228.5,351.5 228.5,352.5 228.5,353.5C 225.833,353.5 223.167,353.5 220.5,353.5C 219.5,358.5 221.5,360.5 226.5,359.5C 226.5,358.5 226.5,357.5 226.5,356.5 Z"/></g>
<g><path style="opacity:0.906" fill="#ffffff" d="M 237.5,358.5 C 236.432,357.566 235.099,357.232 233.5,357.5C 233.5,358.833 233.5,360.167 233.5,361.5C 231.586,358.316 230.92,354.649 231.5,350.5C 234.579,350.26 237.579,350.593 240.5,351.5C 241.645,353.635 241.645,355.801 240.5,358C 240.759,359.261 241.426,360.261 242.5,361C 240.072,361.747 238.406,360.914 237.5,358.5 Z"/></g>
<g><path style="opacity:0.935" fill="#ffffff" d="M 246.5,350.5 C 255.488,349.756 257.821,353.256 253.5,361C 243.684,362.18 241.35,358.68 246.5,350.5 Z"/></g>
<g><path style="opacity:0.902" fill="#ffffff" d="M 271.5,350.5 C 274.579,350.26 277.579,350.593 280.5,351.5C 282.885,357.453 280.885,359.786 274.5,358.5C 274.5,359.5 274.5,360.5 274.5,361.5C 273.5,361.5 272.5,361.5 271.5,361.5C 271.5,357.833 271.5,354.167 271.5,350.5 Z"/></g>
<g><path style="opacity:0.928" fill="#ffffff" d="M 261.5,358.5 C 262.884,359.801 264.384,359.801 266,358.5C 266.497,356.19 266.663,353.857 266.5,351.5C 268.344,353.279 269.01,355.612 268.5,358.5C 267.714,360.735 266.048,361.735 263.5,361.5C 260.952,361.735 259.286,360.735 258.5,358.5C 258.192,356.076 258.526,353.743 259.5,351.5C 260.168,353.969 260.835,356.302 261.5,358.5 Z"/></g>
<g><path style="opacity:0.334" fill="#ffffff" d="M 261.5,358.5 C 260.835,356.302 260.168,353.969 259.5,351.5C 258.526,353.743 258.192,356.076 258.5,358.5C 257.527,356.052 257.194,353.385 257.5,350.5C 258.833,350.5 260.167,350.5 261.5,350.5C 261.5,353.167 261.5,355.833 261.5,358.5 Z"/></g>
<g><path style="opacity:0.584" fill="#ffffff" d="M 266.5,351.5 C 267.209,350.596 268.209,350.263 269.5,350.5C 269.806,353.385 269.473,356.052 268.5,358.5C 269.01,355.612 268.344,353.279 266.5,351.5 Z"/></g>
<g><path style="opacity:0.175" fill="#ffffff" d="M 234.5,353.5 C 235.978,353.238 237.311,353.571 238.5,354.5C 237.833,354.833 237.167,355.167 236.5,355.5C 235.287,355.253 234.62,354.586 234.5,353.5 Z"/></g>
<g><path style="opacity:0.063" fill="#ffffff" d="M 246.5,353.5 C 248.527,353.338 250.527,353.505 252.5,354C 253.65,358.186 251.983,359.852 247.5,359C 246.594,357.301 246.261,355.467 246.5,353.5 Z"/></g>
<g><path style="opacity:0.1" fill="#ffffff" d="M 274.5,353.5 C 276.288,353.215 277.955,353.548 279.5,354.5C 278.332,356.217 276.665,356.884 274.5,356.5C 274.5,355.5 274.5,354.5 274.5,353.5 Z"/></g>
<g><path style="opacity:0.525" fill="#ffffff" d="M 226.5,356.5 C 227.209,355.596 228.209,355.263 229.5,355.5C 229.795,357.735 229.461,359.735 228.5,361.5C 228.923,359.219 228.256,357.552 226.5,356.5 Z"/></g>
<g><path style="opacity:0.694" fill="#ffffff" d="M 237.5,358.5 C 236.5,358.5 235.5,358.5 234.5,358.5C 234.737,359.791 234.404,360.791 233.5,361.5C 233.5,360.167 233.5,358.833 233.5,357.5C 235.099,357.232 236.432,357.566 237.5,358.5 Z"/></g>
<g><path style="opacity:0.004" fill="#ffffff" d="M 220.5,363.5 C 221.833,364.167 221.833,364.167 220.5,363.5 Z"/></g>
<g><path style="opacity:0.004" fill="#ffffff" d="M 231.5,364.5 C 232.251,363.427 233.251,363.26 234.5,364C 233.552,364.483 232.552,364.649 231.5,364.5 Z"/></g>
<g><path style="opacity:0.004" fill="#ffffff" d="M 239.5,364.5 C 240.251,363.427 241.251,363.26 242.5,364C 241.552,364.483 240.552,364.649 239.5,364.5 Z"/></g>
<g><path style="opacity:0.004" fill="#ffffff" d="M 260.5,363.5 C 262.833,363.5 265.167,363.5 267.5,363.5C 265.167,364.833 262.833,364.833 260.5,363.5 Z"/></g>
<g><path style="opacity:0.009" fill="#ffffff" d="M -0.5,494.5 C 0.451145,495.919 0.784479,497.585 0.5,499.5C 0.166667,499.5 -0.166667,499.5 -0.5,499.5C -0.5,497.833 -0.5,496.167 -0.5,494.5 Z"/></g>
</svg>
