<?xml version="1.0" encoding="UTF-8"?>
<!DOCTYPE svg PUBLIC "-//W3C//DTD SVG 1.1//EN" "http://www.w3.org/Graphics/SVG/1.1/DTD/svg11.dtd">
<svg xmlns="http://www.w3.org/2000/svg" version="1.1" width="100px" height="150px" style="shape-rendering:geometricPrecision; text-rendering:geometricPrecision; image-rendering:optimizeQuality; fill-rule:evenodd; clip-rule:evenodd" xmlns:xlink="http://www.w3.org/1999/xlink">
<g><path style="opacity:1" fill="#161616" d="M -0.5,-0.5 C 32.8333,-0.5 66.1667,-0.5 99.5,-0.5C 99.5,49.5 99.5,99.5 99.5,149.5C 66.1667,149.5 32.8333,149.5 -0.5,149.5C -0.5,99.5 -0.5,49.5 -0.5,-0.5 Z"/></g>
<g><path style="opacity:1" fill="#3e4245" d="M 62.5,74.5 C 61.8826,74.3893 61.3826,74.056 61,73.5C 60.8019,75.3817 60.3019,77.0484 59.5,78.5C 60.6,73.0309 58.4334,70.0309 53,69.5C 51,72.1667 49,72.1667 47,69.5C 41.2101,70.2591 39.3768,73.2591 41.5,78.5C 43.7819,81.1216 46.1152,83.7883 48.5,86.5C 40.0754,84.5504 36.5754,79.217 38,70.5C 43.1973,61.9098 50.1973,60.2431 59,65.5C 61.2868,68.0722 62.4535,71.0722 62.5,74.5 Z"/></g>
<g><path style="opacity:1" fill="#a5acae" d="M 59.5,78.5 C 56.6146,78.8064 53.9479,78.4731 51.5,77.5C 50.5,77.5 49.5,77.5 48.5,77.5C 46.3926,78.4682 44.0593,78.8016 41.5,78.5C 39.3768,73.2591 41.2101,70.2591 47,69.5C 49,72.1667 51,72.1667 53,69.5C 58.4334,70.0309 60.6,73.0309 59.5,78.5 Z"/></g>
<g><path style="opacity:1" fill="#d0580c" d="M 48.5,77.5 C 46.1667,77.5 43.8333,77.5 41.5,77.5C 41.5,76.1667 41.5,74.8333 41.5,73.5C 43.8333,73.5 46.1667,73.5 48.5,73.5C 48.5,74.8333 48.5,76.1667 48.5,77.5 Z"/></g>
<g><path style="opacity:1" fill="#1e9f86" d="M 51.5,77.5 C 51.5,76.1667 51.5,74.8333 51.5,73.5C 53.8333,73.5 56.1667,73.5 58.5,73.5C 58.5,74.8333 58.5,76.1667 58.5,77.5C 56.1667,77.5 53.8333,77.5 51.5,77.5 Z"/></g>
<g><path style="opacity:1" fill="#2d3133" d="M 62.5,74.5 C 61.8715,83.1245 57.2048,87.1245 48.5,86.5C 46.1152,83.7883 43.7819,81.1216 41.5,78.5C 44.0593,78.8016 46.3926,78.4682 48.5,77.5C 49.5,77.5 50.5,77.5 51.5,77.5C 53.9479,78.4731 56.6146,78.8064 59.5,78.5C 60.3019,77.0484 60.8019,75.3817 61,73.5C 61.3826,74.056 61.8826,74.3893 62.5,74.5 Z"/></g>
</svg>
