<svg id="Слой_1" data-name="Слой 1" xmlns="http://www.w3.org/2000/svg" viewBox="0 0 300 450"><defs><style>.cls-1{fill:#111113;}.cls-2,.cls-3{fill:#fff;}.cls-2{opacity:0.7;}.cls-3{stroke:#fff;stroke-miterlimit:10;stroke-width:0.87px;}</style></defs><rect class="cls-1" width="300" height="450"/><path class="cls-2" d="M48.13,244.33V172.55a7.48,7.48,0,0,1,11.68-6.19l42.6,28.84a7.47,7.47,0,0,1,0,12.39Z"/><path class="cls-2" d="M13.26,253.8V196.12a7.49,7.49,0,0,1,11.68-6.2l51.75,35L24.94,260A7.49,7.49,0,0,1,13.26,253.8Z"/><path class="cls-2" d="M48.13,205.67v71.78a7.48,7.48,0,0,0,11.68,6.19l42.6-28.84a7.47,7.47,0,0,0,0-12.39Z"/><path class="cls-3" d="M134.53,218.72,148,192.46h2.21l13.49,26.26h-3l-3.13-6.08h-17l-3.1,6.08Zm7.22-8.4h14.69l-7.32-14.4Z"/><path class="cls-3" d="M169.22,218.72V192.46h2.66v11.86h6.58l10.72-11.86h3.33l0,.08-11.73,13.05,11.65,12.95-.05.22-2.86.38L178.5,206.87h-6.62v11.85Z"/><path class="cls-3" d="M196.2,195v-2.56H221l-.22,2.56H210.1v23.7h-2.62V195Z"/><path class="cls-3" d="M226.12,218.72V192.46h22L247.9,195H228.78v9.3H245.9l-.14,2.55h-17v9.3h19.33l-.21,2.55Z"/><path class="cls-3" d="M254.47,218.72V192.46l3.46-.19c1.18-.06,2.31-.11,3.39-.14l3-.08c.94,0,1.75,0,2.43,0a33,33,0,0,1,4.62.3,9.81,9.81,0,0,1,3.67,1.21,6.21,6.21,0,0,1,2.41,2.63,10.2,10.2,0,0,1,.87,4.59,11.86,11.86,0,0,1-.46,3.51,7.36,7.36,0,0,1-1.29,2.44,5.87,5.87,0,0,1-2,1.57,10.31,10.31,0,0,1-2.64.82l5.87,9.46,0,.22-2.66.32-6-9.62c-.37,0-.75,0-1.12,0h-1.2c-1.1,0-2.52,0-4.25-.08s-3.53-.11-5.39-.21v9.51Zm2.66-12.06q2.83.14,5.4.21c1.7,0,3.09.07,4.17.07a30.79,30.79,0,0,0,3.57-.19,8.15,8.15,0,0,0,2.86-.85A4.76,4.76,0,0,0,275,204a6.77,6.77,0,0,0,.68-3.29,6.88,6.88,0,0,0-.68-3.29,4.75,4.75,0,0,0-1.88-1.89,7.56,7.56,0,0,0-2.85-.82c-1.11-.11-2.3-.17-3.58-.17-1.08,0-2.48,0-4.18.07s-3.51.12-5.39.2Z"/><path class="cls-3" d="M283.54,218.72v-3.13h3.2v3.13Z"/><path class="cls-3" d="M133.78,257.5V231l3.27-.2c1.12-.06,2.18-.1,3.2-.13l2.86-.08c.88,0,1.65,0,2.29,0a38,38,0,0,1,4.51.26,11.82,11.82,0,0,1,3.74,1,6.15,6.15,0,0,1,2.52,2.21,6.88,6.88,0,0,1,.92,3.79,6.47,6.47,0,0,1-1,3.82,6.18,6.18,0,0,1-2.94,2.1,7.5,7.5,0,0,1,3.77,2.2,6.22,6.22,0,0,1,1.29,4.21,7.05,7.05,0,0,1-1,4,6.77,6.77,0,0,1-2.74,2.36,12.47,12.47,0,0,1-4,1.1,42.9,42.9,0,0,1-4.77.26c-.74,0-1.56,0-2.48-.05l-2.94-.1c-1,0-2.11-.08-3.22-.14S134.84,257.54,133.78,257.5Zm2.68-14.94h9c.73,0,1.45,0,2.14.05l2,.13a7.67,7.67,0,0,0,3.63-1.64,4.09,4.09,0,0,0,1.19-3.13,4.37,4.37,0,0,0-.71-2.6,4.49,4.49,0,0,0-1.93-1.5,8.67,8.67,0,0,0-2.87-.63c-1.1-.06-2.29-.1-3.56-.1-1,0-2.28,0-3.88.05s-3.27.06-5,.12Zm0,12.52c1.73.1,3.38.17,5,.22s2.93.07,4,.07q2.06,0,3.87-.18a11.42,11.42,0,0,0,3.19-.74,5.17,5.17,0,0,0,2.19-1.6,4.39,4.39,0,0,0,.82-2.79,4.09,4.09,0,0,0-.75-2.59,4.76,4.76,0,0,0-2.07-1.49,11.58,11.58,0,0,0-3.21-.69c-1.26-.11-2.64-.16-4.15-.16h-8.9Z"/><path class="cls-3" d="M164.55,257.5V231h2.68v23.9h19.5l-.22,2.58Z"/><path class="cls-3" d="M192,257.5,205.61,231h2.23l13.6,26.48h-3l-3.15-6.13H198.12L195,257.5ZM199.3,249h14.81l-7.38-14.53Z"/><path class="cls-3" d="M225.43,244.24a18.31,18.31,0,0,1,1.21-7.33,9.81,9.81,0,0,1,3.22-4.15,11.07,11.07,0,0,1,4.6-1.84,33.22,33.22,0,0,1,5.32-.42,45.23,45.23,0,0,1,4.7.27l5.12.54-.22,2.56-2.47-.28-2.46-.29c-.81-.09-1.59-.15-2.36-.18s-1.45-.05-2.07-.05c-1,0-2,0-3,.12a13.31,13.31,0,0,0-2.81.5,9.24,9.24,0,0,0-2.45,1.12,6.48,6.48,0,0,0-1.94,2,9.68,9.68,0,0,0-1.28,3.08,18.15,18.15,0,0,0-.46,4.39,18.73,18.73,0,0,0,.45,4.4,9.91,9.91,0,0,0,1.27,3.08,6.6,6.6,0,0,0,1.93,2,9.26,9.26,0,0,0,2.43,1.11,12.91,12.91,0,0,0,2.78.5c1,.07,2,.11,3,.11.62,0,1.3,0,2.06,0s1.54-.08,2.37-.18l2.51-.29,2.54-.31.22,2.58-5.56.59a40.49,40.49,0,0,1-4.25.23,33.21,33.21,0,0,1-5.32-.43,11,11,0,0,1-4.61-1.84,9.72,9.72,0,0,1-3.22-4.14A18.37,18.37,0,0,1,225.43,244.24Z"/><path class="cls-3" d="M256,257.5V231h2.68V243h6.64L276.08,231h3.35l0,.08-11.82,13.16,11.75,13.05-.06.22-2.88.38-11.15-12.36h-6.68V257.5Z"/></svg>