<?xml version="1.0" encoding="UTF-8"?>
<svg version="1.1" xmlns="http://www.w3.org/2000/svg" width="180" height="180">
<path d="M0 0 C59.4 0 118.8 0 180 0 C180 59.4 180 118.8 180 180 C120.6 180 61.2 180 0 180 C0 120.6 0 61.2 0 0 Z " fill="none" transform="translate(0,0)"/>
<path d="M0 0 C0.99128906 0.35191406 1.98257813 0.70382813 3.00390625 1.06640625 C21.43464932 8.19860951 35.78703519 20.89642207 44 39 C46.77024113 45.91672385 48.73233905 52.54831927 49 60 C49.03109863 60.62648437 49.06219727 61.25296875 49.09423828 61.8984375 C49.97010941 81.12358879 45.46114869 98.55874966 32.66235352 113.31762695 C20.17155439 126.98669108 3.65753007 136.25576279 -15.046875 137.3515625 C-35.560509 138.10197331 -52.65282419 132.9146442 -68.4375 119.39453125 C-82.21394939 106.52111132 -90.70504857 87.79617145 -91.39160156 69.015625 C-91.75085738 48.83614944 -84.89253935 31.76765993 -71 17 C-52.02050652 -0.85478275 -25.18743551 -8.99809389 0 0 Z " fill="#1d1f20" transform="translate(111,23)"/>
<path d="M0 0 C1.92578125 1.20703125 1.92578125 1.20703125 3 3 C3.39500857 6.04946616 3.13430156 8.91106412 3 12 C8.28 12 13.56 12 19 12 C18.938125 10.576875 18.87625 9.15375 18.8125 7.6875 C18.62935109 3.47507497 18.62935109 3.47507497 20.28076172 1.35839844 C22 0 22 0 25.80078125 0.00390625 C32.53782356 1.00880408 38.83394161 3.56944609 45.1875 5.9375 C46.44431652 6.39872749 47.70147644 6.85902035 48.95898438 7.31835938 C51.27154826 8.16435891 53.58254243 9.01467191 55.89135742 9.87084961 C58.02032765 10.64415419 60.17133141 11.35862331 62.3371582 12.02172852 C65 13 65 13 66 15 C66.12294406 17.51830417 66.18833554 20.00793165 66.203125 22.52734375 C66.20882507 23.27206436 66.21452515 24.01678497 66.22039795 24.78407288 C66.22984791 26.36018451 66.23638192 27.93631591 66.24023438 29.51245117 C66.24994832 31.92466603 66.28097361 34.33603177 66.3125 36.74804688 C66.31902932 38.27864077 66.32428007 39.80924076 66.328125 41.33984375 C66.3404718 42.06179428 66.3528186 42.78374481 66.36553955 43.52757263 C66.34319678 48.54558652 66.34319678 48.54558652 64.72354126 50.69010925 C61.67017852 53.01066386 57.82123587 52.42498305 54.1328125 52.3984375 C53.26107391 52.40130768 52.38933533 52.40417786 51.49118042 52.40713501 C49.64694571 52.40917639 47.80268938 52.40364133 45.95849609 52.39111328 C43.14240728 52.37509899 40.3277621 52.39093916 37.51171875 52.41015625 C35.71874684 52.40817307 33.92577583 52.40432786 32.1328125 52.3984375 C31.29307892 52.40451019 30.45334534 52.41058289 29.58816528 52.4168396 C23.86142784 52.34835593 20.55704118 51.27970483 16.19921875 47.39453125 C14.79947917 45.9296875 13.39973958 44.46484375 12 43 C9.03872759 44.32421845 7.1256272 45.77095343 4.87841797 48.08618164 C0.49340247 51.91632072 -3.42934861 51.7947937 -9.0546875 51.62109375 C-9.99684113 51.61497574 -10.93899475 51.60885773 -11.90969849 51.60255432 C-14.89924715 51.57574424 -17.88616226 51.50661025 -20.875 51.4375 C-22.90622357 51.41596359 -24.93747683 51.3970559 -26.96875 51.38085938 C-41.78789535 51.21210465 -41.78789535 51.21210465 -43 50 C-43.08858646 47.26105915 -43.11523479 44.5474673 -43.09765625 41.80859375 C-43.0962413 40.98875504 -43.09482635 40.16891632 -43.09336853 39.32423401 C-43.08775289 36.69528618 -43.07519779 34.06642227 -43.0625 31.4375 C-43.05748701 29.65950643 -43.05292376 27.88151154 -43.04882812 26.10351562 C-43.03777839 21.73564455 -43.02050331 17.36783652 -43 13 C-38.00648957 11.13406628 -33.00773922 9.28320905 -28.00366211 7.44580078 C-26.30391622 6.81933179 -24.60564449 6.18884733 -22.90893555 5.55419922 C-20.46263874 4.63997741 -18.01131476 3.74057126 -15.55859375 2.84375 C-14.80726669 2.55939087 -14.05593964 2.27503174 -13.28184509 1.98205566 C-8.71318751 0.33105153 -4.93121589 -0.40462659 0 0 Z " fill="#9EA3A6" transform="translate(79,62)"/>
<path d="M0 0 C2.31 1.98 4.62 3.96 7 6 C8.20462891 6.98226562 8.20462891 6.98226562 9.43359375 7.984375 C12.23705909 10.45448481 14.5773939 12.55289425 15.64453125 16.20703125 C16.36992897 32.40758027 7.78432138 49.33517808 -2.875 61 C-14.17453934 72.81146973 -29.98423663 82.39262463 -46.67041016 83.11572266 C-53.11595699 83.24588228 -59.55587376 83.16772619 -66 83 C-65.01 82.34 -64.02 81.68 -63 81 C-63.53870728 80.46351334 -64.07741455 79.92702667 -64.63244629 79.37428284 C-69.69728585 74.32944168 -74.75974359 69.28222824 -79.81951141 64.23230076 C-82.42116116 61.63588001 -85.02373723 59.04040187 -87.62841797 56.44702148 C-90.13984522 53.94642254 -92.64885495 51.44342177 -95.15617371 48.93870354 C-96.11542721 47.98130439 -97.07556348 47.02478891 -98.03657532 46.06915474 C-99.37759636 44.73534331 -100.71525461 43.39815344 -102.05273438 42.06079102 C-102.81662476 41.29912125 -103.58051514 40.53745148 -104.36755371 39.75270081 C-106 38 -106 38 -106 37 C-104.32043213 36.97812622 -104.32043213 36.97812622 -102.60693359 36.95581055 C-98.43571726 36.89765114 -94.26503081 36.82041977 -90.09423828 36.73754883 C-88.29224271 36.70438227 -86.49014533 36.67632475 -84.68798828 36.65356445 C-82.09103177 36.61986568 -79.49500134 36.56754351 -76.8984375 36.51171875 C-75.69808365 36.50213387 -75.69808365 36.50213387 -74.47348022 36.49235535 C-68.75958969 36.34360302 -64.58278949 35.18421087 -60.1015625 31.39453125 C-59.37066406 30.61142578 -59.37066406 30.61142578 -58.625 29.8125 C-57.75875 28.884375 -56.8925 27.95625 -56 27 C-52.29615312 28.42455649 -50.09716929 30.80439725 -47.46484375 33.66015625 C-44.84573863 36.0557644 -42.17687049 36.12365427 -38.80395508 36.11352539 C-37.54298759 36.11341209 -37.54298759 36.11341209 -36.25654602 36.11329651 C-35.35333115 36.10813522 -34.45011627 36.10297394 -33.51953125 36.09765625 C-32.59154221 36.0962413 -31.66355316 36.09482635 -30.70744324 36.09336853 C-27.74242942 36.08776937 -24.77749101 36.07521704 -21.8125 36.0625 C-19.80273547 36.05748489 -17.79296975 36.052922 -15.78320312 36.04882812 C-10.8554163 36.03865095 -5.9277926 36.01907533 -1 36 C-0.67 24.12 -0.34 12.24 0 0 Z " fill="#1d1f20" transform="translate(145,77)"/>
<path d="M0 0 C17.82 0 35.64 0 54 0 C54.165 4.62 54.33 9.24 54.5 14 C54.57283203 15.44117187 54.64566406 16.88234375 54.72070312 18.3671875 C54.88083093 27.64426918 54.88083093 27.64426918 52.25390625 31.6875 C46.16584068 37.85262969 46.16584068 37.85262969 42.1337738 38.12698364 C40.99912437 38.12817703 40.99912437 38.12817703 39.84155273 38.12939453 C38.98403915 38.13254669 38.12652557 38.13569885 37.24302673 38.13894653 C36.31591385 38.1369223 35.38880096 38.13489807 34.43359375 38.1328125 C33.00975121 38.13424759 33.00975121 38.13424759 31.55714417 38.13571167 C29.548919 38.1363928 27.54069165 38.13454319 25.5324707 38.13037109 C22.44672745 38.12501601 19.36112937 38.1303214 16.27539062 38.13671875 C14.32812468 38.13605807 12.38085882 38.13477713 10.43359375 38.1328125 C9.50445663 38.13483673 8.57531952 38.13686096 7.61802673 38.13894653 C6.76366531 38.13579437 5.90930389 38.13264221 5.02905273 38.12939453 C4.27341537 38.12859894 3.51777802 38.12780334 2.73924255 38.12698364 C1 38 1 38 0 37 C-0.08857875 34.26129758 -0.11530707 31.54725017 -0.09765625 28.80859375 C-0.09614563 27.7190741 -0.09614563 27.7190741 -0.09460449 26.60754395 C-0.08935716 23.88417999 -0.075396 21.16083847 -0.0625 18.4375 C-0.041875 12.353125 -0.02125 6.26875 0 0 Z " fill="#CFD3D7" transform="translate(36,75)"/>
<path d="M0 0 C0.79289932 -0.0033284 1.58579865 -0.0066568 2.40272522 -0.01008606 C4.08317483 -0.01515851 5.76363454 -0.01749429 7.4440918 -0.01733398 C10.02083884 -0.01951911 12.59715701 -0.03766734 15.17382812 -0.05664062 C16.80338395 -0.0595747 18.43294181 -0.0615594 20.0625 -0.0625 C20.83649643 -0.06968552 21.61049286 -0.07687103 22.40794373 -0.08427429 C27.86883372 -0.06085378 27.86883372 -0.06085378 30.09765625 2.16796875 C30.35644531 4.19921875 30.35644531 4.19921875 30.36328125 6.66796875 C30.36714844 7.99828125 30.36714844 7.99828125 30.37109375 9.35546875 C30.36335938 10.28359375 30.355625 11.21171875 30.34765625 12.16796875 C30.35925781 13.56015625 30.35925781 13.56015625 30.37109375 14.98046875 C30.36851562 15.86734375 30.3659375 16.75421875 30.36328125 17.66796875 C30.36102539 18.48265625 30.35876953 19.29734375 30.35644531 20.13671875 C30.09765625 22.16796875 30.09765625 22.16796875 28.09765625 24.16796875 C25.38454976 24.35542385 22.7753654 24.42362281 20.0625 24.3984375 C18.87171593 24.39775017 18.87171593 24.39775017 17.65687561 24.39704895 C15.97818508 24.3940264 14.29949735 24.38614 12.62084961 24.3737793 C10.04205467 24.3555176 7.46361848 24.35326962 4.88476562 24.35351562 C3.25650729 24.34860071 1.62825141 24.34277251 0 24.3359375 C-1.16403099 24.33426826 -1.16403099 24.33426826 -2.35157776 24.33256531 C-7.78629368 24.28401882 -7.78629368 24.28401882 -8.90234375 23.16796875 C-9.00150945 21.54539331 -9.03314152 19.91857044 -9.03515625 18.29296875 C-9.03644531 17.308125 -9.03773437 16.32328125 -9.0390625 15.30859375 C-9.03519531 14.2721875 -9.03132813 13.23578125 -9.02734375 12.16796875 C-9.03314453 10.61335938 -9.03314453 10.61335938 -9.0390625 9.02734375 C-9.03777344 8.0425 -9.03648438 7.05765625 -9.03515625 6.04296875 C-9.03402832 5.13289063 -9.03290039 4.2228125 -9.03173828 3.28515625 C-8.73418721 -1.58345292 -3.79560272 0.00544294 0 0 Z " fill="#1AA086" transform="translate(106.90234375,81.83203125)"/>
<path d="M0 0 C0.77399643 0.00718552 1.54799286 0.01437103 2.34544373 0.02177429 C3.5362278 0.02246162 3.5362278 0.02246162 4.75106812 0.02316284 C6.42975865 0.02618539 8.10844637 0.03407179 9.78709412 0.0464325 C12.36588906 0.06469419 14.94432524 0.06694217 17.5231781 0.06669617 C19.15143643 0.07161108 20.77969232 0.07743929 22.40794373 0.08427429 C23.57197472 0.08594353 23.57197472 0.08594353 24.75952148 0.08764648 C30.1942374 0.13619297 30.1942374 0.13619297 31.31028748 1.25224304 C31.40945318 2.87481849 31.44108524 4.50164135 31.44309998 6.12724304 C31.44503357 7.60450867 31.44503357 7.60450867 31.44700623 9.11161804 C31.44313904 10.14802429 31.43927185 11.18443054 31.43528748 12.25224304 C31.44108826 13.80685242 31.44108826 13.80685242 31.44700623 15.39286804 C31.44571716 16.37771179 31.4444281 17.36255554 31.44309998 18.37724304 C31.44197205 19.28732117 31.44084412 20.19739929 31.43968201 21.13505554 C31.31028748 23.25224304 31.31028748 23.25224304 30.31028748 24.25224304 C27.66742474 24.3656093 25.05167291 24.41642065 22.40794373 24.42021179 C21.6150444 24.42354019 20.82214508 24.42686859 20.00521851 24.43029785 C18.3247689 24.43537031 16.64430918 24.43770608 14.96385193 24.43754578 C12.38710489 24.4397309 9.81078672 24.45787913 7.2341156 24.47685242 C5.60455978 24.4797865 3.97500192 24.4817712 2.34544373 24.48271179 C1.18444908 24.49349007 1.18444908 24.49349007 0 24.50448608 C-5.46089 24.48106557 -5.46089 24.48106557 -7.68971252 22.25224304 C-7.94850159 20.22099304 -7.94850159 20.22099304 -7.95533752 17.75224304 C-7.95791565 16.86536804 -7.96049377 15.97849304 -7.96315002 15.06474304 C-7.95154846 13.67255554 -7.95154846 13.67255554 -7.93971252 12.25224304 C-7.9474469 11.32411804 -7.95518127 10.39599304 -7.96315002 9.43974304 C-7.9605719 8.55286804 -7.95799377 7.66599304 -7.95533752 6.75224304 C-7.95308167 5.93755554 -7.95082581 5.12286804 -7.94850159 4.28349304 C-7.34203229 -0.47671879 -4.00709875 0.01718554 0 0 Z " fill="#D25807" transform="translate(50.68971252441406,81.74775695800781)"/>
<path d="M0 0 C0.99 0.99 1.98 1.98 3 3 C3 5.97 3 8.94 3 12 C-10.53 12 -24.06 12 -38 12 C-33.43740266 8.95826844 -28.33822686 7.42326832 -23.1953125 5.57666016 C-21.26666132 4.88100962 -19.34441824 4.16935817 -17.421875 3.45703125 C-16.1946875 3.01488281 -14.9675 2.57273437 -13.703125 2.1171875 C-12.58583008 1.71097168 -11.46853516 1.30475586 -10.31738281 0.88623047 C-6.67189082 -0.08765354 -3.75555752 -0.36747687 0 0 Z " fill="#7F868B" transform="translate(79,62)"/>
<path d="M0 0 C6.86919672 1.02307185 13.30639834 3.6559163 19.78515625 6.06640625 C21.09276352 6.54453816 22.40070428 7.02175907 23.70898438 7.49804688 C26.88359447 8.65777529 30.05454076 9.8265768 33.22265625 11.00390625 C33.22265625 11.33390625 33.22265625 11.66390625 33.22265625 12.00390625 C20.02265625 12.00390625 6.82265625 12.00390625 -6.77734375 12.00390625 C-6.77734375 9.03390625 -6.77734375 6.06390625 -6.77734375 3.00390625 C-3.77734375 0.00390625 -3.77734375 0.00390625 0 0 Z " fill="#80878C" transform="translate(104.77734375,61.99609375)"/>
</svg>
