<svg id="Слой_1" data-name="Слой 1" xmlns="http://www.w3.org/2000/svg" xmlns:xlink="http://www.w3.org/1999/xlink" viewBox="0 0 108.27943 20.61838">
  <defs>
    <style>
      .cls-1 {
        fill: #ffc800;
      }

      .cls-2 {
        fill: url(#Безымянный_градиент);
      }
    </style>
    <radialGradient id="Безымянный_градиент" data-name="Безымянный градиент" cx="-785.60869" cy="561.99931" r="0.99983" gradientTransform="matrix(10.6099, 0, 0, -10.3118, 8345.84162, 5805.53245)" gradientUnits="userSpaceOnUse">
      <stop offset="0.5" stop-color="#fff" stop-opacity="0"/>
      <stop offset="1" stop-color="#fff" stop-opacity="0.35"/>
    </radialGradient>
  </defs>
  <title>Beeline</title>
  <g>
    <path d="M89.04733,4.68995a3.64448,3.64448,0,0,0,3.9654-3.5h-2.1093c-.2181.848-.7284,1.272-1.8561,1.272s-1.7101-.424-1.8912-1.272h-2.1093A3.67368,3.67368,0,0,0,89.04733,4.68995Z"/>
    <path d="M45.74213,14.47V5.786h-2.6567V18.444h2.7657l5.3463-8.83v8.83H53.852V5.786h-2.7637Z"/>
    <path d="M34.72873,5.892a5.22622,5.22622,0,0,0-4.8256,2.72c.1317-2.868.7181-4.574,4.1341-5.018l5.3113-.708L39.13043.058,33.601.8c-4.7659.636-6.1118,4.208-6.1118,9.828,0,4.914,2.2925,8.06,6.548,8.06,4.1466,0,6.402-3.112,6.402-6.752A5.67407,5.67407,0,0,0,34.72873,5.892Zm-.6915,10.006c-2.4014,0-3.8193-1.696-3.8193-4.242V10.348c.5083-.99,1.8562-1.768,3.8193-1.768,2.0743,0,3.6733.954,3.6733,3.358S36.43873,15.898,34.03723,15.898Z"/>
    <path d="M105.62543,5.786v4.738h-5.168V5.786h-2.6542V18.444h2.6542V13.14h5.168v5.304h2.654V5.786Z"/>
    <path d="M86.35563,14.47V5.786h-2.6567V18.444h2.7658l5.3462-8.83v8.83h2.6567V5.786h-2.7657Z"/>
    <path d="M58.63023,13.53c-.2901,1.414-.6914,2.016-1.4919,2.016a3.42293,3.42293,0,0,1-.9816-.106v2.934a2.80133,2.80133,0,0,0,1.3088.248,2.93169,2.93169,0,0,0,2.8377-1.98,12.81544,12.81544,0,0,0,.6194-3.076,46.74994,46.74994,0,0,0,.2552-5.09H64.707v9.97h2.6546V5.79h-8.4021A59.64915,59.64915,0,0,1,58.63023,13.53Z"/>
    <path d="M79.88983,15.014l.037-5.02c.037-3.182-1.9652-4.49-4.875-4.49a4.5652,4.5652,0,0,0-4.91,4.242h2.5456c.1461-1.166,1.0906-1.556,2.3644-1.556,1.3047,0,2.1792.39,2.3109,1.692l-3.2554,1.278c-2.2184.884-3.8914,1.874-3.8914,3.96,0,2.156,1.2368,3.536,3.7103,3.536a3.8998,3.8998,0,0,0,3.6526-2.304c.1297,1.524,1.1689,2.198,2.9674,2.198h.7285V16.11h-.2182C80.21693,16.11,79.88983,15.792,79.88983,15.014Zm-4.9841.99c-1.2368,0-2.1463-.318-2.1463-1.414,0-.954.7634-1.378,2.0743-1.91l2.5352-1.024-.0267,3.428A3.14507,3.14507,0,0,1,74.90573,16.004Z"/>
    <path class="cls-1" d="M10.61163,20.616a10.46244,10.46244,0,0,0,10.6102-10.308A10.46241,10.46241,0,0,0,10.61163,0,10.46237,10.46237,0,0,0,.00146,10.308,10.4624,10.4624,0,0,0,10.61163,20.616Z"/>
    <path d="M15.17693,17.988c-3.6033,2.02-7.5111,2.382-10.00725,1.172a10.8798,10.8798,0,0,0,10.74805.076,10.25453,10.25453,0,0,0,5.3071-9.082C21.05613,12.858,18.77813,15.966,15.17693,17.988Z"/>
    <path d="M11.95653.756c.7305,1.228-1.0351,3.548-3.94487,5.178C5.10188,7.566,2.153,7.892,1.42248,6.662a1.10723,1.10723,0,0,1-.08026-.188,2.49232,2.49232,0,0,1,.58237-2.092q.13274-.183.27164-.36A10.46047,10.46047,0,0,1,5.30561,1.38,10.77013,10.77013,0,0,1,9.21549.086q.23459-.033.45684-.048a2.67181,2.67181,0,0,1,2.1545.554A1.19574,1.19574,0,0,1,11.95653.756Z"/>
    <path d="M16.468,2.08405c1.2758,2.146-1.2985,5.908-5.7475,8.404S1.629,13.268.3552,11.122a2.55837,2.55837,0,0,1-.34777-1.184,9.948,9.948,0,0,0,.79432,4.3c.08849.208.18521.414.2881.618l.0144.026a4.07477,4.07477,0,0,0,1.66067,1.522c2.49615,1.298,6.71676.852,10.66371-1.362,3.9448-2.214,6.4533-5.54,6.5459-8.288a3.90961,3.90961,0,0,0-.5206-2.152c-.144-.21-.2943-.416-.4527-.612a10.47137,10.47137,0,0,0-3.3954-2.78,2.64434,2.64434,0,0,1,.8622.874l.002.004Z"/>
    <path class="cls-2" d="M10.61163,20.616a10.46244,10.46244,0,0,0,10.6102-10.308A10.46241,10.46241,0,0,0,10.61163,0,10.46237,10.46237,0,0,0,.00146,10.308,10.4624,10.4624,0,0,0,10.61163,20.616Z"/>
  </g>
</svg>
